<svg width="159" height="48" viewBox="0 0 159 48" fill="none" xmlns="http://www.w3.org/2000/svg">
<path d="M26.944 36.6738V10.0603C26.944 8.77349 27.6459 8.24707 28.9327 8.07159L32.5006 7.3697C33.7874 7.13574 34.5478 8.07159 34.5478 9.3584V36.6153C34.5478 37.9021 33.7874 38.604 32.5591 38.604H28.9912C27.6459 38.6625 26.944 37.9606 26.944 36.6738Z" fill="#00E169"/>
<path d="M60.2627 18.5422V36.6744C60.2627 37.9612 59.5609 38.6631 58.274 38.6631H56.1099C54.8231 38.6631 54.1212 37.9027 54.1212 36.6744V35.7971C52.8344 37.7858 50.7287 39.248 47.5702 39.248C42.1305 39.248 38.504 35.6801 38.504 30.2989V18.5422C38.504 17.2554 39.2644 16.5535 40.5512 16.5535H44.1192C45.406 16.5535 46.1664 17.3139 46.1664 18.5422V29.1876C46.1664 31.2932 47.3947 32.7555 49.3834 32.7555C51.4306 32.7555 52.6589 31.2932 52.6589 29.1291V18.5422C52.6589 17.2554 53.3608 16.5535 54.6476 16.5535H58.274C59.5609 16.5535 60.2627 17.2554 60.2627 18.5422Z" fill="#00E169"/>
<path d="M63.6926 36.1471C62.6983 35.2113 62.4643 34.3924 63.5172 33.2226L64.57 31.9358C65.5644 30.7075 66.5587 31.0584 67.4946 31.7018C68.9568 32.8131 70.9455 33.632 72.9342 33.632C74.221 33.632 74.9814 33.1641 74.9814 32.3452C74.9814 31.2924 73.6361 30.8244 72.2323 30.3565C68.3134 29.1867 63.9266 27.7829 63.9266 23.1036C63.9266 18.8338 67.4361 16.2017 72.9342 16.2017C76.0928 16.2017 79.4852 17.313 81.006 18.5998C82.0004 19.4772 82.1758 20.296 81.123 21.5828L80.1871 22.6942C79.4268 23.63 78.3739 23.63 77.3796 23.0451C76.1512 22.1678 74.7475 21.5828 72.9927 21.5828C71.7644 21.5828 71.0625 22.0508 71.0625 22.7527C71.0625 23.864 73.0512 24.2149 75.8588 25.2093C79.4267 26.6131 82.1173 28.4263 82.1173 32.2282C82.1173 36.6736 78.3154 39.3057 72.8757 39.3057C69.0153 39.3057 65.4474 37.7849 63.6926 36.1471Z" fill="#00E169"/>
<path d="M107.949 9.41748V36.6744C107.949 37.9612 107.247 38.6631 105.961 38.6631H103.621C102.334 38.6631 101.574 37.9027 101.574 36.6744V36.4989C99.8775 38.1951 97.5964 39.248 94.7303 39.248C88.4133 39.248 83.7925 34.2177 83.7925 27.7252C83.7925 21.2327 88.4133 16.2025 94.7303 16.2025C96.836 16.2025 98.7077 16.7874 100.287 17.7232V10.1194C100.287 8.83256 100.989 8.30614 102.276 8.13067L105.844 7.48727C107.247 7.2533 107.949 8.13067 107.949 9.41748ZM100.696 27.7252C100.696 24.6837 98.6492 22.695 96.0171 22.695C93.268 22.695 91.2793 24.9176 91.2793 27.7252C91.2793 30.5913 93.268 32.7555 96.0171 32.7555C98.6492 32.7555 100.696 30.7668 100.696 27.7252Z" fill="#00E169"/>
<path d="M111.38 4.56231C111.38 1.9887 113.427 0 115.942 0C118.516 0 120.505 1.9887 120.505 4.56231C120.505 7.07743 118.516 9.12462 115.942 9.12462C113.427 9.12462 111.38 7.07743 111.38 4.56231ZM112.14 36.6739V18.5417C112.14 17.2549 112.842 16.553 114.188 16.553H117.756C119.042 16.553 119.803 17.3134 119.803 18.5417V36.6739C119.803 37.9608 119.042 38.6626 117.756 38.6626H114.188C112.842 38.6626 112.14 37.9608 112.14 36.6739Z" fill="#00E169"/>
<path d="M146.103 25.7357V36.6736C146.103 37.9604 145.342 38.6623 144.114 38.6623H140.546C139.259 38.6623 138.557 37.9019 138.557 36.6736V26.3206C138.557 24.098 137.271 22.6357 135.106 22.6357C132.942 22.6357 131.538 24.098 131.538 26.3206V36.6736C131.538 37.9604 130.837 38.6623 129.55 38.6623H125.923C124.636 38.6623 123.935 37.9019 123.935 36.6736V18.5413C123.935 17.2545 124.636 16.5526 125.923 16.5526H128.263C129.55 16.5526 130.252 17.313 130.252 18.5413V19.7111C131.714 17.6639 133.878 16.2017 137.095 16.2017C142.301 16.2017 146.103 19.8866 146.103 25.7357Z" fill="#00E169"/>
<path d="M149.416 34.6263C149.416 32.1112 151.405 30.064 153.978 30.064C156.493 30.064 158.541 32.1112 158.541 34.6263C158.541 37.1414 156.493 39.1886 153.978 39.1886C151.463 39.1886 149.416 37.1414 149.416 34.6263Z" fill="#00E169"/>
<path d="M0 46.0322V18.7753C0 17.4885 0.701894 16.7866 1.9887 16.7866H4.32835C5.61515 16.7866 6.37554 17.547 6.37554 18.7753V18.9507C8.07178 17.2545 10.3529 16.2017 13.219 16.2017C19.5361 16.2017 24.1569 21.2319 24.1569 27.7244C24.1569 34.2169 19.5361 39.2472 13.219 39.2472C11.1133 39.2472 9.24161 38.6623 7.66234 37.7264V45.3303C7.66234 46.6171 6.96045 47.1435 5.67364 47.319L2.10568 47.9624C0.701894 48.1963 0 47.319 0 46.0322ZM7.25291 27.7244C7.25291 30.766 9.3001 32.7547 11.9322 32.7547C14.6813 32.7547 16.67 30.532 16.67 27.7244C16.67 24.8584 14.6813 22.6942 11.9322 22.6942C9.24161 22.6942 7.25291 24.6244 7.25291 27.7244Z" fill="#00E169"/>
</svg>
